<?xml version="1.0" encoding="utf-8"?><!-- Uploaded to: SVG Repo, www.svgrepo.com, Generator: SVG Repo Mixer Tools -->
<svg width="800px" height="800px" viewBox="0 0 70 70" xmlns="http://www.w3.org/2000/svg"><title>Fashion</title><path d="M70.43,31.12a0.87,0.87,0,0,1-.78,1.21C53.29,33,42.12,46.38,41.85,62.61h0a0.37,0.37,0,0,1-.37.39H35.53a0.37,0.37,0,0,1-.37-0.38C35,46.29,23.78,32.79,7.35,32.14a0.87,0.87,0,0,1-.78-1.21l1.56-5.62A0.41,0.41,0,0,1,8.63,25a115,115,0,0,0,29.88,3.89,114.85,114.85,0,0,0,29.86-3.7,0.41,0.41,0,0,1,.5.29Z" fill="#fcf286"/><path d="M37.84,62.81a1.34,1.34,0,0,1,0-.2C38.12,46.38,49.29,33,65.65,32.33a0.87,0.87,0,0,0,.78-1.21L64.87,25.5a0.41,0.41,0,0,0-.5-0.29,114.85,114.85,0,0,1-29.86,3.7A115,115,0,0,1,4.63,25a0.41,0.41,0,0,0-.5.29L2.57,30.93a0.87,0.87,0,0,0,.78,1.21C19.78,32.79,31,46.29,31.16,62.62a0.37,0.37,0,0,0,.37.38h5.93a0.37,0.37,0,0,0,.37-0.39" fill="none" stroke="#752323" stroke-miterlimit="10" stroke-width="2"/></svg>